<svg width="66" height="66" viewBox="0 0 66 66" fill="none" xmlns="http://www.w3.org/2000/svg">
<path fill-rule="evenodd" clip-rule="evenodd" d="M21.4592 11.5474L23.3751 11C29.6807 9.19837 36.3493 9.08726 42.7114 10.6778L45.2888 11.3222C51.2979 12.8244 56.0485 17.4193 57.7501 23.375L58.4659 25.8803C59.7846 30.4956 59.5328 35.4183 57.7501 39.875L57.5534 40.3667C56.0814 44.0467 52.6123 46.5174 48.6886 46.7344L48.1251 46.75C43.6747 46.75 39.3568 48.2646 35.8816 51.0448L34.3751 52.25C30.1426 55.636 24.3897 56.4169 19.4077 54.2818L17.8751 53.625C11.914 51.0702 7.7557 45.5446 6.95127 39.1091L6.49458 35.4556C5.85026 30.3011 6.9525 25.0793 9.62512 20.625C12.2756 16.2076 16.5059 12.9626 21.4592 11.5474ZM42.7114 10.6778L45.2888 11.3222C51.2979 12.8244 56.0485 17.4193 57.7501 23.375L58.4659 25.8803C58.6377 26.4815 58.7828 27.088 58.9014 27.698C58.6456 29.0343 58.2606 30.3487 57.7501 31.625L57.5534 32.1167C56.0814 35.7967 52.6123 38.2674 48.6886 38.4844L48.1251 38.5C43.6747 38.5 39.3568 40.0146 35.8816 42.7948L34.3751 44C30.1426 47.386 24.3897 48.1669 19.4077 46.0318L17.8751 45.375C11.914 42.8202 7.7557 37.2946 6.95127 30.8591L6.66123 28.5806C7.14873 25.7881 8.14664 23.0891 9.62512 20.625C12.2756 16.2076 16.5059 12.9626 21.4592 11.5474L23.3751 11C29.6807 9.19837 36.3493 9.08726 42.7114 10.6778ZM58.9876 28.3402C56.3805 22.9672 50.9331 19.5555 44.9609 19.5555H44.0689C37.1178 19.5555 30.3195 17.5156 24.5168 13.6887L22.7564 12.5277C22.2654 12.204 21.7654 11.8984 21.2574 11.6111L21.4592 11.5474L23.3751 11C26.5279 10.0992 29.7715 9.621 33.0221 9.56683L34.2412 9.5664C37.0859 9.61178 39.928 9.98193 42.7114 10.6778L45.2888 11.3222C51.2979 12.8244 56.0485 17.4193 57.7501 23.375L58.4659 25.8803C58.7132 26.7456 58.9052 27.6218 59.0423 28.5037L59.031 28.4302C59.0166 28.4002 59.0022 28.3702 58.9876 28.3402ZM16.5978 29.2491C16.5978 31.5273 19.0603 33.3741 22.0978 33.3741C25.1354 33.3741 27.5978 31.5273 27.5978 29.2491C27.5978 26.9709 25.1354 25.1241 22.0978 25.1241C19.0603 25.1241 16.5978 26.9709 16.5978 29.2491Z" stroke="black" stroke-linecap="square"/>
</svg>
